<svg t="1723696973924" class="icon" viewBox="0 0 1024 1024" version="1.1" xmlns="http://www.w3.org/2000/svg" p-id="5287" width="200" height="200"><path d="M384 480H192c-52.8 0-96-43.2-96-96V192c0-52.8 43.2-96 96-96h192c52.8 0 96 43.2 96 96v192c0 52.8-43.2 96-96 96zM192 160c-17.6 0-32 14.4-32 32v192c0 17.6 14.4 32 32 32h192c17.6 0 32-14.4 32-32V192c0-17.6-14.4-32-32-32H192zM832 480H640c-52.8 0-96-43.2-96-96V192c0-52.8 43.2-96 96-96h192c52.8 0 96 43.2 96 96v192c0 52.8-43.2 96-96 96zM640 160c-17.6 0-32 14.4-32 32v192c0 17.6 14.4 32 32 32h192c17.6 0 32-14.4 32-32V192c0-17.6-14.4-32-32-32H640zM384 928H192c-52.8 0-96-43.2-96-96V640c0-52.8 43.2-96 96-96h192c52.8 0 96 43.2 96 96v192c0 52.8-43.2 96-96 96zM192 608c-17.6 0-32 14.4-32 32v192c0 17.6 14.4 32 32 32h192c17.6 0 32-14.4 32-32V640c0-17.6-14.4-32-32-32H192zM832 928H640c-52.8 0-96-43.2-96-96V640c0-52.8 43.2-96 96-96h192c52.8 0 96 43.2 96 96v192c0 52.8-43.2 96-96 96zM640 608c-17.6 0-32 14.4-32 32v192c0 17.6 14.4 32 32 32h192c17.6 0 32-14.4 32-32V640c0-17.6-14.4-32-32-32H640z" fill="#333333" p-id="5288"></path></svg>